<?xml version="1.0" encoding="utf-8"?>
<!-- Generator: Adobe Illustrator 28.2.0, SVG Export Plug-In . SVG Version: 6.00 Build 0)  -->
<svg version="1.1" id="Layer_1" xmlns="http://www.w3.org/2000/svg" xmlns:xlink="http://www.w3.org/1999/xlink" x="0px" y="0px"
	 viewBox="0 0 129 34" style="enable-background:new 0 0 129 34;" xml:space="preserve">
<style type="text/css">
	.st0{fill:#FF532E;}
	.st1{fill:#1F2937;}
</style>
<g>
	<path class="st0" d="M1.9,25.6V8.2h2.3v15.3h7.6v2.1H1.9z"/>
	<path class="st0" d="M17.6,25.9c-0.8,0-1.6-0.2-2.2-0.5c-0.6-0.3-1.1-0.7-1.5-1.3c-0.4-0.5-0.5-1.2-0.5-1.9c0-0.7,0.1-1.3,0.4-1.8
		c0.3-0.5,0.8-1,1.4-1.4s1.4-0.6,2.3-0.8l4.6-0.8v1.8L18,20.1c-0.8,0.1-1.4,0.4-1.8,0.8s-0.5,0.8-0.5,1.4c0,0.5,0.2,0.9,0.6,1.3
		c0.4,0.3,0.9,0.5,1.6,0.5c0.8,0,1.5-0.2,2.1-0.5s1-0.8,1.4-1.4c0.3-0.6,0.5-1.2,0.5-1.9V17c0-0.7-0.2-1.2-0.7-1.7
		c-0.5-0.4-1.2-0.6-2-0.6c-0.7,0-1.3,0.2-1.9,0.6c-0.6,0.4-1,0.9-1.2,1.4l-1.9-1c0.2-0.6,0.6-1.1,1.1-1.6c0.5-0.5,1.1-0.8,1.8-1.1
		c0.7-0.3,1.4-0.4,2.1-0.4c1,0,1.8,0.2,2.5,0.5c0.7,0.4,1.3,0.9,1.7,1.5c0.4,0.7,0.6,1.4,0.6,2.2v8.5h-2.1v-2.4l0.4,0.2
		c-0.3,0.5-0.6,0.9-1.1,1.3c-0.5,0.4-1,0.7-1.6,0.9S18.3,25.9,17.6,25.9z"/>
	<path class="st0" d="M25.9,25.6v-1.8l7.5-9.4l0.4,0.8h-7.5V13h9.4v1.8l-7.4,9.5l-0.4-0.8h7.8v2.1H25.9z"/>
	<path class="st0" d="M41.3,25.9c-0.8,0-1.6-0.2-2.2-0.5c-0.6-0.3-1.1-0.7-1.5-1.3c-0.4-0.5-0.5-1.2-0.5-1.9c0-0.7,0.1-1.3,0.4-1.8
		c0.3-0.5,0.8-1,1.4-1.4s1.4-0.6,2.3-0.8l4.6-0.8v1.8l-4.2,0.7c-0.8,0.1-1.4,0.4-1.8,0.8s-0.5,0.8-0.5,1.4c0,0.5,0.2,0.9,0.6,1.3
		c0.4,0.3,0.9,0.5,1.6,0.5c0.8,0,1.5-0.2,2.1-0.5s1-0.8,1.4-1.4c0.3-0.6,0.5-1.2,0.5-1.9V17c0-0.7-0.2-1.2-0.7-1.7
		c-0.5-0.4-1.2-0.6-2-0.6c-0.7,0-1.3,0.2-1.9,0.6c-0.6,0.4-1,0.9-1.2,1.4l-1.9-1c0.2-0.6,0.6-1.1,1.1-1.6c0.5-0.5,1.1-0.8,1.8-1.1
		c0.7-0.3,1.4-0.4,2.1-0.4c1,0,1.8,0.2,2.5,0.5c0.7,0.4,1.3,0.9,1.7,1.5c0.4,0.7,0.6,1.4,0.6,2.2v8.5h-2.1v-2.4l0.4,0.2
		c-0.3,0.5-0.6,0.9-1.1,1.3c-0.5,0.4-1,0.7-1.6,0.9S42,25.9,41.3,25.9z"/>
	<path class="st0" d="M56.5,25.9c-1.2,0-2.2-0.3-3.2-0.9s-1.7-1.4-2.2-2.4c-0.5-1-0.8-2.1-0.8-3.3c0-1.3,0.3-2.4,0.8-3.4
		s1.3-1.8,2.2-2.3c0.9-0.6,2-0.9,3.2-0.9c1,0,2,0.2,2.8,0.7c0.8,0.4,1.4,1,1.9,1.8l-0.3,0.5V7.9H63v17.7h-2.1v-2.7l0.3,0.4
		c-0.4,0.8-1.1,1.5-1.9,1.9C58.4,25.6,57.5,25.9,56.5,25.9z M56.7,23.8c0.8,0,1.5-0.2,2.1-0.6c0.6-0.4,1.1-0.9,1.5-1.6
		c0.4-0.7,0.5-1.4,0.5-2.3c0-0.9-0.2-1.6-0.5-2.3c-0.4-0.7-0.9-1.2-1.5-1.6c-0.6-0.4-1.3-0.6-2.1-0.6s-1.5,0.2-2.1,0.6
		c-0.6,0.4-1.1,0.9-1.5,1.6c-0.4,0.7-0.5,1.4-0.5,2.3c0,0.8,0.2,1.6,0.5,2.3c0.4,0.7,0.8,1.2,1.5,1.6C55.2,23.6,55.9,23.8,56.7,23.8
		z"/>
	<path class="st0" d="M69.3,25.9c-0.8,0-1.6-0.2-2.2-0.5c-0.6-0.3-1.1-0.7-1.5-1.3c-0.4-0.5-0.5-1.2-0.5-1.9c0-0.7,0.1-1.3,0.4-1.8
		c0.3-0.5,0.8-1,1.4-1.4c0.6-0.4,1.4-0.6,2.3-0.8l4.6-0.8v1.8l-4.2,0.7c-0.8,0.1-1.4,0.4-1.8,0.8s-0.5,0.8-0.5,1.4
		c0,0.5,0.2,0.9,0.6,1.3c0.4,0.3,0.9,0.5,1.6,0.5c0.8,0,1.5-0.2,2.1-0.5c0.6-0.3,1-0.8,1.4-1.4c0.3-0.6,0.5-1.2,0.5-1.9V17
		c0-0.7-0.2-1.2-0.7-1.7c-0.5-0.4-1.2-0.6-2-0.6c-0.7,0-1.3,0.2-1.9,0.6c-0.6,0.4-1,0.9-1.2,1.4l-1.9-1c0.2-0.6,0.6-1.1,1.1-1.6
		c0.5-0.5,1.1-0.8,1.8-1.1c0.7-0.3,1.4-0.4,2.1-0.4c1,0,1.8,0.2,2.5,0.5c0.7,0.4,1.3,0.9,1.7,1.5c0.4,0.7,0.6,1.4,0.6,2.2v8.5h-2.1
		v-2.4l0.4,0.2c-0.3,0.5-0.6,0.9-1.1,1.3s-1,0.7-1.6,0.9S70.1,25.9,69.3,25.9z"/>
	<path class="st1" d="M79.1,25.6V8.2h2.1l6.5,9.3h-1.1l6.5-9.3h2.1v17.4h-2.3V11.1l0.8,0.3l-6.5,9.1H87l-6.4-9.1l0.7-0.3v14.5H79.1z
		"/>
	<path class="st1" d="M102.2,25.9c-0.8,0-1.6-0.2-2.2-0.5c-0.6-0.3-1.1-0.7-1.5-1.3C98.2,23.6,98,23,98,22.3c0-0.7,0.1-1.3,0.4-1.8
		c0.3-0.5,0.8-1,1.4-1.4c0.6-0.4,1.4-0.6,2.3-0.8l4.6-0.8v1.8l-4.2,0.7c-0.8,0.1-1.4,0.4-1.8,0.8s-0.5,0.8-0.5,1.4
		c0,0.5,0.2,0.9,0.6,1.3c0.4,0.3,0.9,0.5,1.6,0.5c0.8,0,1.5-0.2,2.1-0.5s1-0.8,1.4-1.4c0.3-0.6,0.5-1.2,0.5-1.9V17
		c0-0.7-0.2-1.2-0.7-1.7c-0.5-0.4-1.2-0.6-2-0.6c-0.7,0-1.3,0.2-1.9,0.6s-1,0.9-1.2,1.4l-1.9-1c0.2-0.6,0.6-1.1,1.1-1.6
		c0.5-0.5,1.1-0.8,1.8-1.1c0.7-0.3,1.4-0.4,2.1-0.4c1,0,1.8,0.2,2.5,0.5c0.7,0.4,1.3,0.9,1.7,1.5c0.4,0.7,0.6,1.4,0.6,2.2v8.5h-2.1
		v-2.4l0.4,0.2c-0.3,0.5-0.6,0.9-1.1,1.3c-0.5,0.4-1,0.7-1.6,0.9C103.6,25.8,102.9,25.9,102.2,25.9z"/>
	<path class="st1" d="M111.7,25.6V13h2.1v2.3l-0.2-0.3c0.3-0.7,0.7-1.2,1.4-1.6c0.6-0.3,1.3-0.5,2.2-0.5h0.8V15h-1.1
		c-0.9,0-1.6,0.3-2.1,0.8c-0.5,0.5-0.8,1.3-0.8,2.3v7.5H111.7z"/>
	<path class="st1" d="M124.9,25.7c-1.2,0-2.2-0.3-2.8-1c-0.7-0.7-1-1.7-1-3v-6.6h-2.3V13h0.5c0.6,0,1-0.2,1.3-0.5s0.5-0.8,0.5-1.4
		v-1h2.2V13h2.8v2.1h-2.8v6.6c0,0.4,0.1,0.8,0.2,1.1s0.4,0.6,0.7,0.7c0.3,0.2,0.7,0.3,1.2,0.3c0.1,0,0.2,0,0.4,0s0.3,0,0.5,0v1.9
		c-0.2,0-0.4,0.1-0.7,0.1C125.2,25.7,125,25.7,124.9,25.7z"/>
</g>
</svg>
